<svg width="190" height="168" viewBox="0 0 190 168" fill="none" xmlns="http://www.w3.org/2000/svg">
<path d="M88.25 102.625C88.4167 102.875 88.375 103.708 88.125 105.125C87.9583 106.542 87.6667 108.083 87.25 109.75C86.9167 111.417 86.5417 113 86.125 114.5C85.7917 115.917 85.5 116.75 85.25 117H84C83.75 117 83.5 116.958 83.25 116.875C83.6667 120.875 84 124.083 84.25 126.5C84.5 128.917 84.625 130.25 84.625 130.5C84.625 131.083 84.3333 131.917 83.75 133C83.25 134.083 82.6667 135.083 82 136C81.3333 136.917 80.625 137.625 79.875 138.125C79.2083 138.708 78.75 138.75 78.5 138.25C78.0833 137.5 77.2083 135.25 75.875 131.5C74.5417 127.75 73.0417 122.625 71.375 116.125C69.7083 115.958 67.9583 115.792 66.125 115.625C64.375 115.458 62.5833 115.292 60.75 115.125C58.9167 114.958 57.0833 114.75 55.25 114.5C53.5 114.167 51.7917 113.875 50.125 113.625C49.2917 117.292 48.4583 120.75 47.625 124C46.875 127.25 46.125 130.083 45.375 132.5C44.7083 134.917 44.125 136.833 43.625 138.25C43.125 139.667 42.75 140.375 42.5 140.375C41.8333 140.375 41.1667 139.958 40.5 139.125C39.8333 138.292 39.2083 137.292 38.625 136.125C38.125 134.958 37.7083 133.75 37.375 132.5C37.0417 131.25 36.875 130.208 36.875 129.375C37.0417 127.458 37.25 125.458 37.5 123.375C37.8333 121.292 38.0833 119.375 38.25 117.625C38.5 115.542 38.75 113.5 39 111.5H38.5C38.1667 111.333 37.7083 110.958 37.125 110.375C36.5417 109.792 35.9583 109.208 35.375 108.625C34.7917 107.958 34.2917 107.333 33.875 106.75C33.4583 106.083 33.25 105.583 33.25 105.25C33.25 105.083 33.8333 104.917 35 104.75C36.25 104.583 37.875 104.417 39.875 104.25C40.5417 99.25 41.25 94.0417 42 88.625C42.75 83.2083 43.5 78.125 44.25 73.375C45 68.625 45.7083 64.5 46.375 61C47.125 57.4167 47.75 54.9583 48.25 53.625C49.0833 51.375 50.5417 49.375 52.625 47.625C54.7083 45.7917 56.875 44.2917 59.125 43.125C61.4583 41.875 63.6667 40.9167 65.75 40.25C67.8333 39.5833 69.375 39.25 70.375 39.25C70.7917 39.25 71.25 40.2083 71.75 42.125C72.3333 43.9583 72.9167 46.4583 73.5 49.625C74.1667 52.7917 74.8333 56.5 75.5 60.75C76.25 64.9167 76.9583 69.3333 77.625 74C78.2917 78.6667 78.9167 83.4583 79.5 88.375C80.1667 93.2083 80.7917 97.8333 81.375 102.25C85.5417 102.25 87.8333 102.375 88.25 102.625ZM52.5 103.375C55.1667 103.208 57.8333 103.083 60.5 103C63.1667 102.917 65.7917 102.792 68.375 102.625C67.7083 99.375 66.9583 95.75 66.125 91.75C65.4583 88.3333 64.6667 84.3333 63.75 79.75C62.8333 75.1667 61.9167 70.125 61 64.625C60 69.5417 59 74.3333 58 79C57 83.5833 56.0833 87.7083 55.25 91.375C54.3333 95.625 53.4167 99.625 52.5 103.375ZM144.875 42.75C145.208 43.0833 145.292 44.75 145.125 47.75C145.042 50.6667 144.75 54.4167 144.25 59C143.75 63.5833 143.125 68.7917 142.375 74.625C141.708 80.4583 140.958 86.375 140.125 92.375C139.292 98.375 138.417 104.25 137.5 110C136.667 115.667 135.833 120.75 135 125.25C134.25 129.667 133.542 133.25 132.875 136C132.292 138.667 131.833 140 131.5 140C130.917 140 130.25 139.667 129.5 139C128.75 138.333 128 137.5 127.25 136.5C126.583 135.583 125.958 134.667 125.375 133.75C124.875 132.75 124.583 131.958 124.5 131.375C124.25 130.292 123.75 128.208 123 125.125C122.333 122.042 121.667 118.208 121 113.625C120.583 110.625 120.167 107.458 119.75 104.125C119.333 101.292 118.875 98.2083 118.375 94.875C117.958 91.4583 117.542 88.0417 117.125 84.625C116.792 86.7917 116.375 89.375 115.875 92.375C115.375 95.375 114.875 98.25 114.375 101C113.792 104.25 113.167 107.542 112.5 110.875C111.917 114.375 111.292 117.833 110.625 121.25C109.958 124.583 109.292 127.625 108.625 130.375C107.958 133.042 107.333 135.208 106.75 136.875C106.25 138.542 105.833 139.417 105.5 139.5C104.917 139.667 104.208 139.458 103.375 138.875C102.542 138.375 101.708 137.667 100.875 136.75C100.042 135.833 99.2917 134.875 98.625 133.875C98.0417 132.792 97.6667 131.875 97.5 131.125C96.3333 122.958 95.3333 115.625 94.5 109.125C93.75 102.625 93.0833 96.875 92.5 91.875C91.9167 86.7917 91.4583 82.4167 91.125 78.75C90.7917 75.0833 90.5 71.9167 90.25 69.25C89.75 63.0833 89.5417 58.7917 89.625 56.375C89.875 54.625 90.5417 52.875 91.625 51.125C92.7083 49.2917 93.9167 47.6667 95.25 46.25C96.5833 44.8333 97.8333 43.75 99 43C100.25 42.1667 101.083 41.875 101.5 42.125C101.75 42.2917 102 43.4167 102.25 45.5C102.5 47.5 102.708 50.1667 102.875 53.5C103.042 56.75 103.208 60.5 103.375 64.75C103.542 69 103.667 73.4583 103.75 78.125C103.917 82.7083 104.042 87.3333 104.125 92C104.292 96.6667 104.458 101.042 104.625 105.125C104.958 103.042 105.292 100.667 105.625 98C106.042 95.3333 106.458 92.5417 106.875 89.625C107.375 86.7083 107.833 83.8333 108.25 81C108.667 78.0833 109.042 75.4167 109.375 73C109.792 70.5833 110.167 68.5 110.5 66.75C110.917 65 111.25 63.7917 111.5 63.125C112.333 61.2083 113.292 59.5417 114.375 58.125C115.542 56.7083 116.625 55.5417 117.625 54.625C118.708 53.7083 119.667 53.0417 120.5 52.625C121.417 52.125 122.042 51.9167 122.375 52C122.458 52 122.625 52.875 122.875 54.625C123.125 56.2917 123.375 58.5 123.625 61.25C123.958 64 124.292 67.1667 124.625 70.75C125.042 74.25 125.458 77.9167 125.875 81.75C126.292 85.5 126.708 89.25 127.125 93C127.542 96.6667 128 100 128.5 103C128.667 100.25 128.833 97.2083 129 93.875C129.167 90.4583 129.333 87 129.5 83.5C129.75 80 129.958 76.5833 130.125 73.25C130.375 69.9167 130.583 66.875 130.75 64.125C131 61.375 131.208 59.0417 131.375 57.125C131.625 55.125 131.875 53.7917 132.125 53.125C132.625 51.4583 133.5 49.9167 134.75 48.5C136 47 137.292 45.7917 138.625 44.875C140.042 43.875 141.333 43.2083 142.5 42.875C143.75 42.4583 144.542 42.4167 144.875 42.75Z" fill="#1F1E1E"/>
</svg>
